<mxfile host="65bd71144e">
    <diagram id="EsgLebGoWWIMGymGJLI_" name="Page-1">
        <mxGraphModel dx="1760" dy="983" grid="1" gridSize="10" guides="1" tooltips="1" connect="1" arrows="1" fold="1" page="1" pageScale="1" pageWidth="1600" pageHeight="900" background="#ffffff" math="0" shadow="0">
            <root>
                <mxCell id="0"/>
                <mxCell id="1" parent="0"/>
                <mxCell id="2" style="edgeStyle=none;html=1;exitX=0.5;exitY=1;exitDx=0;exitDy=0;entryX=0.5;entryY=0;entryDx=0;entryDy=0;fontFamily=Times New Roman;fontColor=#000000;fillColor=#a0522d;strokeColor=#6D1F00;" edge="1" parent="1" source="3" target="8">
                    <mxGeometry relative="1" as="geometry"/>
                </mxCell>
                <mxCell id="3" value="&lt;font color=&quot;#000000&quot;&gt;User launches&lt;br&gt;the web application&lt;/font&gt;" style="ellipse;whiteSpace=wrap;html=1;fillColor=#fad9d5;strokeColor=#ae4132;fontFamily=Times New Roman;" vertex="1" parent="1">
                    <mxGeometry x="615" y="117" width="120" height="80" as="geometry"/>
                </mxCell>
                <mxCell id="4" style="edgeStyle=none;html=1;entryX=0;entryY=0.5;entryDx=0;entryDy=0;fontFamily=Times New Roman;fontColor=#000000;fillColor=#a0522d;strokeColor=#6D1F00;" edge="1" parent="1" source="8" target="10">
                    <mxGeometry relative="1" as="geometry"/>
                </mxCell>
                <mxCell id="5" value="Yes" style="edgeLabel;html=1;align=center;verticalAlign=middle;resizable=0;points=[];fontFamily=Times New Roman;fontColor=#000000;labelBackgroundColor=none;" vertex="1" connectable="0" parent="4">
                    <mxGeometry x="-0.4154" y="2" relative="1" as="geometry">
                        <mxPoint x="10" y="-8" as="offset"/>
                    </mxGeometry>
                </mxCell>
                <mxCell id="6" style="edgeStyle=none;html=1;entryX=0.5;entryY=0;entryDx=0;entryDy=0;fontFamily=Times New Roman;fontColor=#000000;fillColor=#a0522d;strokeColor=#6D1F00;" edge="1" parent="1" target="12">
                    <mxGeometry relative="1" as="geometry">
                        <mxPoint x="675" y="307" as="sourcePoint"/>
                    </mxGeometry>
                </mxCell>
                <mxCell id="7" value="No" style="edgeLabel;html=1;align=center;verticalAlign=middle;resizable=0;points=[];fontFamily=Times New Roman;fontColor=#000000;labelBackgroundColor=none;" vertex="1" connectable="0" parent="6">
                    <mxGeometry x="-0.0357" y="1" relative="1" as="geometry">
                        <mxPoint x="-16" as="offset"/>
                    </mxGeometry>
                </mxCell>
                <mxCell id="8" value="&lt;font color=&quot;#000000&quot;&gt;Browse&lt;br&gt;Product&lt;br&gt;Information?&lt;/font&gt;" style="rhombus;whiteSpace=wrap;html=1;fontFamily=Times New Roman;fillColor=#fad7ac;strokeColor=#b46504;" vertex="1" parent="1">
                    <mxGeometry x="615" y="227" width="120" height="80" as="geometry"/>
                </mxCell>
                <mxCell id="10" value="Show the&lt;br&gt;Information&lt;br&gt;Page" style="whiteSpace=wrap;html=1;fontFamily=Times New Roman;fillColor=#e3c800;strokeColor=#B09500;fontColor=#000000;" vertex="1" parent="1">
                    <mxGeometry x="805" y="227" width="120" height="80" as="geometry"/>
                </mxCell>
                <mxCell id="11" style="edgeStyle=none;html=1;entryX=0.5;entryY=0;entryDx=0;entryDy=0;fontFamily=Times New Roman;fontColor=#000000;fillColor=#a0522d;strokeColor=#6D1F00;" edge="1" parent="1" source="12" target="16">
                    <mxGeometry relative="1" as="geometry"/>
                </mxCell>
                <mxCell id="12" value="Show the Home page" style="whiteSpace=wrap;html=1;fontFamily=Times New Roman;fillColor=#e3c800;strokeColor=#B09500;fontColor=#000000;" vertex="1" parent="1">
                    <mxGeometry x="615" y="347" width="120" height="80" as="geometry"/>
                </mxCell>
                <mxCell id="13" value="Yes" style="edgeStyle=none;html=1;exitX=0.5;exitY=1;exitDx=0;exitDy=0;entryX=0.5;entryY=0;entryDx=0;entryDy=0;fontFamily=Times New Roman;fontColor=#000000;labelBackgroundColor=none;fillColor=#a0522d;strokeColor=#6D1F00;" edge="1" parent="1" source="16" target="25">
                    <mxGeometry y="-10" relative="1" as="geometry">
                        <mxPoint as="offset"/>
                    </mxGeometry>
                </mxCell>
                <mxCell id="14" style="edgeStyle=none;html=1;entryX=1;entryY=0.5;entryDx=0;entryDy=0;labelBackgroundColor=none;fontFamily=Times New Roman;fontColor=#000000;fillColor=#a0522d;strokeColor=#6D1F00;" edge="1" parent="1" source="16" target="18">
                    <mxGeometry relative="1" as="geometry"/>
                </mxCell>
                <mxCell id="15" value="No" style="edgeLabel;html=1;align=center;verticalAlign=middle;resizable=0;points=[];fontFamily=Times New Roman;fontColor=#000000;labelBackgroundColor=none;" vertex="1" connectable="0" parent="14">
                    <mxGeometry x="-0.4" y="3" relative="1" as="geometry">
                        <mxPoint x="-2" y="-13" as="offset"/>
                    </mxGeometry>
                </mxCell>
                <mxCell id="16" value="&lt;font color=&quot;#000000&quot;&gt;Does the user&lt;br&gt;have an acount?&lt;br&gt;&lt;/font&gt;" style="rhombus;whiteSpace=wrap;html=1;fontFamily=Times New Roman;fillColor=#fad7ac;strokeColor=#b46504;" vertex="1" parent="1">
                    <mxGeometry x="616.5" y="457" width="115" height="80" as="geometry"/>
                </mxCell>
                <mxCell id="18" value="Show the&lt;br&gt;Sign Up page" style="whiteSpace=wrap;html=1;fontFamily=Times New Roman;fillColor=#e3c800;strokeColor=#B09500;fontColor=#000000;" vertex="1" parent="1">
                    <mxGeometry x="450" y="457" width="120" height="80" as="geometry"/>
                </mxCell>
                <mxCell id="24" value="Yes" style="edgeStyle=none;html=1;exitX=0.5;exitY=1;exitDx=0;exitDy=0;entryX=0.5;entryY=0;entryDx=0;entryDy=0;labelBackgroundColor=none;fontFamily=Times New Roman;fontColor=#000000;fillColor=#a0522d;strokeColor=#6D1F00;" edge="1" parent="1" source="25" target="49">
                    <mxGeometry y="-10" relative="1" as="geometry">
                        <mxPoint as="offset"/>
                    </mxGeometry>
                </mxCell>
                <mxCell id="25" value="&lt;font color=&quot;#000000&quot;&gt;Did the user &lt;br&gt;log in to their &lt;br&gt;account?&lt;/font&gt;" style="rhombus;whiteSpace=wrap;html=1;fontFamily=Times New Roman;fillColor=#fad7ac;strokeColor=#b46504;" vertex="1" parent="1">
                    <mxGeometry x="614" y="577" width="120" height="80" as="geometry"/>
                </mxCell>
                <mxCell id="27" value="Show the&lt;br&gt;Log In page" style="whiteSpace=wrap;html=1;fontFamily=Times New Roman;fillColor=#e3c800;strokeColor=#B09500;fontColor=#000000;" vertex="1" parent="1">
                    <mxGeometry x="820" y="577" width="120" height="80" as="geometry"/>
                </mxCell>
                <mxCell id="28" value="" style="edgeStyle=none;html=1;labelBackgroundColor=none;fontFamily=Times New Roman;fontColor=#000000;exitX=1;exitY=0.5;exitDx=0;exitDy=0;fillColor=#a0522d;strokeColor=#6D1F00;entryX=0;entryY=0.5;entryDx=0;entryDy=0;" edge="1" parent="1" source="31" target="33">
                    <mxGeometry x="-0.0805" y="17" relative="1" as="geometry">
                        <mxPoint as="offset"/>
                        <mxPoint x="520" y="660" as="targetPoint"/>
                    </mxGeometry>
                </mxCell>
                <mxCell id="30" value="&lt;font color=&quot;#000000&quot;&gt;Is the credential&lt;br&gt;correct?&lt;br&gt;&lt;/font&gt;" style="rhombus;whiteSpace=wrap;html=1;fontFamily=Times New Roman;fillColor=#fad7ac;strokeColor=#b46504;" vertex="1" parent="1">
                    <mxGeometry x="1200" y="577" width="120" height="80" as="geometry"/>
                </mxCell>
                <mxCell id="31" value="&lt;font color=&quot;#000000&quot;&gt;Cookie shows the user&lt;br&gt;has logged in and&lt;br&gt;they go to device&lt;br&gt;management&amp;nbsp; directly&lt;br&gt;&lt;/font&gt;" style="ellipse;whiteSpace=wrap;html=1;fillColor=#fad9d5;strokeColor=#ae4132;fontFamily=Times New Roman;" vertex="1" parent="1">
                    <mxGeometry x="300" y="938.5" width="160" height="123" as="geometry"/>
                </mxCell>
                <mxCell id="32" style="edgeStyle=none;html=1;entryX=0.5;entryY=0;entryDx=0;entryDy=0;labelBackgroundColor=none;fontFamily=Times New Roman;fontColor=#000000;" edge="1" parent="1" source="33">
                    <mxGeometry relative="1" as="geometry">
                        <mxPoint x="672.5" y="1130" as="targetPoint"/>
                    </mxGeometry>
                </mxCell>
                <mxCell id="33" value="Show the Device Managemen&lt;br&gt;Page" style="whiteSpace=wrap;html=1;fontFamily=Times New Roman;fillColor=#e3c800;strokeColor=#B09500;fontColor=#000000;" vertex="1" parent="1">
                    <mxGeometry x="614" y="960" width="120" height="80" as="geometry"/>
                </mxCell>
                <mxCell id="37" value="&lt;font color=&quot;#000000&quot;&gt;User's account information&lt;/font&gt;" style="rhombus;whiteSpace=wrap;html=1;labelBackgroundColor=none;fontFamily=Times New Roman;rotation=-30;strokeColor=#0e8088;fillColor=#b0e3e6;" vertex="1" parent="1">
                    <mxGeometry x="990" y="569.5" width="165" height="95" as="geometry"/>
                </mxCell>
                <mxCell id="41" value="&lt;font color=&quot;#000000&quot;&gt;Go back to &lt;br&gt;home page?&lt;/font&gt;" style="rhombus;whiteSpace=wrap;html=1;fontFamily=Times New Roman;fillColor=#fad7ac;strokeColor=#b46504;" vertex="1" parent="1">
                    <mxGeometry x="1000" y="227" width="120" height="80" as="geometry"/>
                </mxCell>
                <mxCell id="49" value="Show the&lt;br&gt;Profile page" style="whiteSpace=wrap;html=1;fontFamily=Times New Roman;fillColor=#e3c800;strokeColor=#B09500;fontColor=#000000;" vertex="1" parent="1">
                    <mxGeometry x="614" y="697" width="120" height="80" as="geometry"/>
                </mxCell>
                <mxCell id="50" value="" style="edgeStyle=none;html=1;entryX=0.5;entryY=0;entryDx=0;entryDy=0;labelBackgroundColor=none;fontFamily=Times New Roman;fontColor=#000000;endArrow=none;" edge="1" parent="1" target="22">
                    <mxGeometry relative="1" as="geometry">
                        <mxPoint x="669" y="903" as="sourcePoint"/>
                        <mxPoint x="900" y="790" as="targetPoint"/>
                    </mxGeometry>
                </mxCell>
                <mxCell id="22" value="&lt;font color=&quot;#000000&quot;&gt;User wants &lt;br&gt;to manage their &lt;br&gt;devices?&lt;/font&gt;" style="rhombus;whiteSpace=wrap;html=1;fontFamily=Times New Roman;fillColor=#fad7ac;strokeColor=#b46504;" vertex="1" parent="1">
                    <mxGeometry x="614" y="830" width="120" height="80" as="geometry"/>
                </mxCell>
                <mxCell id="52" value="" style="edgeStyle=none;html=1;labelBackgroundColor=none;fontFamily=Times New Roman;fontColor=#000000;exitX=1;exitY=0.5;exitDx=0;exitDy=0;fillColor=#a0522d;strokeColor=#6D1F00;entryX=0;entryY=0.75;entryDx=0;entryDy=0;" edge="1" parent="1" source="53" target="49">
                    <mxGeometry x="-0.0805" y="17" relative="1" as="geometry">
                        <mxPoint as="offset"/>
                        <mxPoint x="614" y="737" as="targetPoint"/>
                    </mxGeometry>
                </mxCell>
                <mxCell id="53" value="&lt;font color=&quot;#000000&quot;&gt;Cookie shows the user&lt;br&gt;has logged in and&lt;br&gt;they go to device&lt;br&gt;management&amp;nbsp; directly&lt;br&gt;&lt;/font&gt;" style="ellipse;whiteSpace=wrap;html=1;fillColor=#fad9d5;strokeColor=#ae4132;fontFamily=Times New Roman;" vertex="1" parent="1">
                    <mxGeometry x="300" y="697" width="160" height="123" as="geometry"/>
                </mxCell>
                <mxCell id="54" style="edgeStyle=none;html=1;entryX=0;entryY=0.5;entryDx=0;entryDy=0;labelBackgroundColor=none;fontFamily=Times New Roman;fontColor=#000000;fillColor=#a0522d;strokeColor=#6D1F00;exitX=1;exitY=0.5;exitDx=0;exitDy=0;" edge="1" parent="1" source="25" target="27">
                    <mxGeometry relative="1" as="geometry">
                        <mxPoint x="626.5" y="507" as="sourcePoint"/>
                        <mxPoint x="580" y="507" as="targetPoint"/>
                    </mxGeometry>
                </mxCell>
                <mxCell id="55" value="No" style="edgeLabel;html=1;align=center;verticalAlign=middle;resizable=0;points=[];fontFamily=Times New Roman;fontColor=#000000;labelBackgroundColor=none;" vertex="1" connectable="0" parent="54">
                    <mxGeometry x="-0.4" y="3" relative="1" as="geometry">
                        <mxPoint x="10" y="-4" as="offset"/>
                    </mxGeometry>
                </mxCell>
                <mxCell id="56" value="Yes" style="edgeStyle=none;html=1;entryX=0.5;entryY=0;entryDx=0;entryDy=0;labelBackgroundColor=none;fontFamily=Times New Roman;fontColor=#000000;fillColor=#a0522d;strokeColor=#6D1F00;" edge="1" parent="1" target="22">
                    <mxGeometry y="-10" relative="1" as="geometry">
                        <mxPoint as="offset"/>
                        <mxPoint x="674" y="777" as="sourcePoint"/>
                        <mxPoint x="740" y="697" as="targetPoint"/>
                        <Array as="points"/>
                    </mxGeometry>
                </mxCell>
                <mxCell id="57" value="Yes" style="edgeStyle=none;html=1;entryX=0.5;entryY=0;entryDx=0;entryDy=0;labelBackgroundColor=none;fontFamily=Times New Roman;fontColor=#000000;fillColor=#a0522d;strokeColor=#6D1F00;exitX=0.5;exitY=1;exitDx=0;exitDy=0;" edge="1" parent="1" source="22" target="33">
                    <mxGeometry y="-10" relative="1" as="geometry">
                        <mxPoint as="offset"/>
                        <mxPoint x="684" y="787" as="sourcePoint"/>
                        <mxPoint x="684" y="840" as="targetPoint"/>
                        <Array as="points"/>
                    </mxGeometry>
                </mxCell>
                <mxCell id="58" style="edgeStyle=none;html=1;entryX=1;entryY=0.75;entryDx=0;entryDy=0;labelBackgroundColor=none;fontFamily=Times New Roman;fontColor=#000000;fillColor=#a0522d;strokeColor=#6D1F00;exitX=1;exitY=0.5;exitDx=0;exitDy=0;" edge="1" parent="1" source="22" target="49">
                    <mxGeometry relative="1" as="geometry">
                        <mxPoint x="744" y="627" as="sourcePoint"/>
                        <mxPoint x="830" y="627" as="targetPoint"/>
                        <Array as="points">
                            <mxPoint x="850" y="870"/>
                            <mxPoint x="850" y="757"/>
                        </Array>
                    </mxGeometry>
                </mxCell>
                <mxCell id="59" value="No" style="edgeLabel;html=1;align=center;verticalAlign=middle;resizable=0;points=[];fontFamily=Times New Roman;fontColor=#000000;labelBackgroundColor=none;" vertex="1" connectable="0" parent="58">
                    <mxGeometry x="-0.4" y="3" relative="1" as="geometry">
                        <mxPoint x="2" y="-68" as="offset"/>
                    </mxGeometry>
                </mxCell>
                <mxCell id="61" style="edgeStyle=none;html=1;entryX=0;entryY=0.5;entryDx=0;entryDy=0;fontFamily=Times New Roman;fontColor=#000000;fillColor=#a0522d;strokeColor=#6D1F00;exitX=1;exitY=0.5;exitDx=0;exitDy=0;" edge="1" parent="1" source="10" target="41">
                    <mxGeometry relative="1" as="geometry">
                        <mxPoint x="745" y="277" as="sourcePoint"/>
                        <mxPoint x="815" y="277" as="targetPoint"/>
                    </mxGeometry>
                </mxCell>
                <mxCell id="63" style="edgeStyle=none;html=1;entryX=0.5;entryY=0;entryDx=0;entryDy=0;fontFamily=Times New Roman;fontColor=#000000;fillColor=#a0522d;strokeColor=#6D1F00;exitX=0.5;exitY=0;exitDx=0;exitDy=0;" edge="1" parent="1" source="41" target="10">
                    <mxGeometry relative="1" as="geometry">
                        <mxPoint x="1120" y="267" as="sourcePoint"/>
                        <mxPoint x="815" y="277" as="targetPoint"/>
                        <Array as="points">
                            <mxPoint x="1060" y="150"/>
                            <mxPoint x="865" y="150"/>
                        </Array>
                    </mxGeometry>
                </mxCell>
                <mxCell id="64" value="No" style="edgeLabel;html=1;align=center;verticalAlign=middle;resizable=0;points=[];fontFamily=Times New Roman;fontColor=#000000;labelBackgroundColor=none;" vertex="1" connectable="0" parent="63">
                    <mxGeometry x="-0.4154" y="2" relative="1" as="geometry">
                        <mxPoint x="15" y="45" as="offset"/>
                    </mxGeometry>
                </mxCell>
                <mxCell id="71" style="edgeStyle=none;html=1;entryX=1;entryY=0.5;entryDx=0;entryDy=0;fontFamily=Times New Roman;fontColor=#000000;fillColor=#a0522d;strokeColor=#6D1F00;exitX=0.5;exitY=1;exitDx=0;exitDy=0;" edge="1" parent="1" source="41" target="12">
                    <mxGeometry relative="1" as="geometry">
                        <mxPoint x="745" y="277" as="sourcePoint"/>
                        <mxPoint x="815" y="277" as="targetPoint"/>
                        <Array as="points">
                            <mxPoint x="1060" y="387"/>
                        </Array>
                    </mxGeometry>
                </mxCell>
                <mxCell id="72" value="Yes" style="edgeLabel;html=1;align=center;verticalAlign=middle;resizable=0;points=[];fontFamily=Times New Roman;fontColor=#000000;labelBackgroundColor=none;" vertex="1" connectable="0" parent="71">
                    <mxGeometry x="-0.4154" y="2" relative="1" as="geometry">
                        <mxPoint x="28" y="-42" as="offset"/>
                    </mxGeometry>
                </mxCell>
                <mxCell id="73" style="edgeStyle=none;html=1;entryX=0;entryY=0;entryDx=0;entryDy=0;labelBackgroundColor=none;fontFamily=Times New Roman;fontColor=#000000;fillColor=#a0522d;strokeColor=#6D1F00;exitX=1;exitY=0.5;exitDx=0;exitDy=0;" edge="1" parent="1" source="27" target="37">
                    <mxGeometry relative="1" as="geometry">
                        <mxPoint x="744" y="627" as="sourcePoint"/>
                        <mxPoint x="830" y="627" as="targetPoint"/>
                    </mxGeometry>
                </mxCell>
                <mxCell id="75" style="edgeStyle=none;html=1;entryX=0;entryY=0.5;entryDx=0;entryDy=0;labelBackgroundColor=none;fontFamily=Times New Roman;fontColor=#000000;fillColor=#a0522d;strokeColor=#6D1F00;exitX=1;exitY=1;exitDx=0;exitDy=0;" edge="1" parent="1" source="37" target="30">
                    <mxGeometry relative="1" as="geometry">
                        <mxPoint x="950" y="627" as="sourcePoint"/>
                        <mxPoint x="1034.901452093892" y="627.0568966601196" as="targetPoint"/>
                    </mxGeometry>
                </mxCell>
                <mxCell id="76" style="edgeStyle=none;html=1;entryX=0.5;entryY=0;entryDx=0;entryDy=0;labelBackgroundColor=none;fontFamily=Times New Roman;fontColor=#000000;fillColor=#a0522d;strokeColor=#6D1F00;exitX=0.5;exitY=0;exitDx=0;exitDy=0;" edge="1" parent="1" source="30" target="27">
                    <mxGeometry relative="1" as="geometry">
                        <mxPoint x="744" y="627" as="sourcePoint"/>
                        <mxPoint x="830" y="627" as="targetPoint"/>
                        <Array as="points">
                            <mxPoint x="1260" y="480"/>
                            <mxPoint x="880" y="480"/>
                        </Array>
                    </mxGeometry>
                </mxCell>
                <mxCell id="77" value="No" style="edgeLabel;html=1;align=center;verticalAlign=middle;resizable=0;points=[];fontFamily=Times New Roman;fontColor=#000000;labelBackgroundColor=none;" vertex="1" connectable="0" parent="76">
                    <mxGeometry x="-0.4" y="3" relative="1" as="geometry">
                        <mxPoint x="65" y="54" as="offset"/>
                    </mxGeometry>
                </mxCell>
                <mxCell id="78" style="edgeStyle=none;html=1;entryX=1;entryY=0.25;entryDx=0;entryDy=0;labelBackgroundColor=none;fontFamily=Times New Roman;fontColor=#000000;fillColor=#a0522d;strokeColor=#6D1F00;exitX=0.5;exitY=1;exitDx=0;exitDy=0;" edge="1" parent="1" source="30" target="49">
                    <mxGeometry relative="1" as="geometry">
                        <mxPoint x="754" y="637" as="sourcePoint"/>
                        <mxPoint x="840" y="637" as="targetPoint"/>
                        <Array as="points">
                            <mxPoint x="1260" y="717"/>
                        </Array>
                    </mxGeometry>
                </mxCell>
                <mxCell id="79" value="Yes" style="edgeLabel;html=1;align=center;verticalAlign=middle;resizable=0;points=[];fontFamily=Times New Roman;fontColor=#000000;labelBackgroundColor=none;" vertex="1" connectable="0" parent="78">
                    <mxGeometry x="-0.4" y="3" relative="1" as="geometry">
                        <mxPoint x="106" y="-50" as="offset"/>
                    </mxGeometry>
                </mxCell>
                <mxCell id="91" value="&lt;font color=&quot;#000000&quot;&gt;User's account information&lt;/font&gt;" style="rhombus;whiteSpace=wrap;html=1;labelBackgroundColor=none;fontFamily=Times New Roman;rotation=-30;strokeColor=#0e8088;fillColor=#b0e3e6;" vertex="1" parent="1">
                    <mxGeometry x="250" y="449.5" width="165" height="95" as="geometry"/>
                </mxCell>
                <mxCell id="93" style="edgeStyle=none;html=1;entryX=1;entryY=1;entryDx=0;entryDy=0;labelBackgroundColor=none;fontFamily=Times New Roman;fontColor=#000000;fillColor=#a0522d;strokeColor=#6D1F00;exitX=0;exitY=0.5;exitDx=0;exitDy=0;" edge="1" parent="1" source="18" target="91">
                    <mxGeometry relative="1" as="geometry">
                        <mxPoint x="626.5" y="507" as="sourcePoint"/>
                        <mxPoint x="580.0000000000001" y="507" as="targetPoint"/>
                    </mxGeometry>
                </mxCell>
                <mxCell id="95" value="&lt;font color=&quot;#000000&quot;&gt;Is the information&lt;br&gt;acceptable?&lt;br&gt;&lt;/font&gt;" style="rhombus;whiteSpace=wrap;html=1;fontFamily=Times New Roman;fillColor=#fad7ac;strokeColor=#b46504;" vertex="1" parent="1">
                    <mxGeometry x="110" y="457" width="120" height="80" as="geometry"/>
                </mxCell>
                <mxCell id="96" style="edgeStyle=none;html=1;entryX=1;entryY=0.5;entryDx=0;entryDy=0;labelBackgroundColor=none;fontFamily=Times New Roman;fontColor=#000000;fillColor=#a0522d;strokeColor=#6D1F00;exitX=0;exitY=0;exitDx=0;exitDy=0;" edge="1" parent="1" source="91" target="95">
                    <mxGeometry relative="1" as="geometry">
                        <mxPoint x="460" y="507" as="sourcePoint"/>
                        <mxPoint x="380.0985479061078" y="506.9431033398804" as="targetPoint"/>
                    </mxGeometry>
                </mxCell>
                <mxCell id="98" style="edgeStyle=none;html=1;entryX=0;entryY=0.25;entryDx=0;entryDy=0;labelBackgroundColor=none;fontFamily=Times New Roman;fontColor=#000000;fillColor=#a0522d;strokeColor=#6D1F00;exitX=0.5;exitY=1;exitDx=0;exitDy=0;" edge="1" parent="1" source="95" target="49">
                    <mxGeometry relative="1" as="geometry">
                        <mxPoint x="294.90145209389175" y="507.0568966601197" as="sourcePoint"/>
                        <mxPoint x="240" y="507" as="targetPoint"/>
                        <Array as="points">
                            <mxPoint x="170" y="610"/>
                            <mxPoint x="490" y="610"/>
                            <mxPoint x="490" y="717"/>
                        </Array>
                    </mxGeometry>
                </mxCell>
                <mxCell id="102" value="Yes" style="edgeLabel;html=1;align=center;verticalAlign=middle;resizable=0;points=[];fontFamily=Times New Roman;fontColor=#000000;" vertex="1" connectable="0" parent="98">
                    <mxGeometry x="-0.9127" y="2" relative="1" as="geometry">
                        <mxPoint x="-12" y="5" as="offset"/>
                    </mxGeometry>
                </mxCell>
                <mxCell id="103" style="edgeStyle=none;html=1;entryX=0.5;entryY=0;entryDx=0;entryDy=0;labelBackgroundColor=none;fontFamily=Times New Roman;fontColor=#000000;fillColor=#a0522d;strokeColor=#6D1F00;exitX=0.5;exitY=0;exitDx=0;exitDy=0;" edge="1" parent="1" source="95" target="18">
                    <mxGeometry relative="1" as="geometry">
                        <mxPoint x="626.5" y="507" as="sourcePoint"/>
                        <mxPoint x="580" y="507" as="targetPoint"/>
                        <Array as="points">
                            <mxPoint x="170" y="360"/>
                            <mxPoint x="510" y="360"/>
                        </Array>
                    </mxGeometry>
                </mxCell>
                <mxCell id="104" value="No" style="edgeLabel;html=1;align=center;verticalAlign=middle;resizable=0;points=[];fontFamily=Times New Roman;fontColor=#000000;labelBackgroundColor=none;" vertex="1" connectable="0" parent="103">
                    <mxGeometry x="-0.4" y="3" relative="1" as="geometry">
                        <mxPoint x="-73" y="70" as="offset"/>
                    </mxGeometry>
                </mxCell>
            </root>
        </mxGraphModel>
    </diagram>
</mxfile>